<svg height="20" viewBox="0 0 20 20" width="20" xmlns="http://www.w3.org/2000/svg"><path d="m297.9792 1199.0005h-13.979v9.94777h2v-7.95822h10v5.96867h6v1.98955h2v-3.54339zm-2.979 15.02611c0-.55011-.448-.99477-1-.99477h-1v1.98955h1c.552 0 1-.44566 1-.99478zm.724 2.35763 1.276 2.51181h-2l-1-1.98956h-1v1.98956h-2v-7.95822h3c1.657 0 3 1.38771 3 3.03606 0 1.0087-.506 1.87018-1.276 2.41035zm4.276-5.44641h-2v7.95822h6v-1.98956h-4zm-12 0h2v5.07834c0 1.64735-1.343 2.98433-3 2.98433s-3-1.33698-3-2.98433v-5.07834h2v5.07834c0 .54911.448.99478 1 .99478s1-.44567 1-.99478z" fill-rule="evenodd" transform="translate(-284 -1199)"/></svg>